<?xml version="1.0" encoding="UTF-8" standalone="no"?>
<!DOCTYPE svg PUBLIC "-//W3C//DTD SVG 1.1//EN"
 "http://www.w3.org/Graphics/SVG/1.1/DTD/svg11.dtd">
<!-- Generated by graphviz version 14.1.3 (20260303.0454)
 -->
<!-- Title: G Pages: 1 -->
<svg width="1005pt" height="859pt"
 viewBox="0.00 0.00 1005.00 859.00" xmlns="http://www.w3.org/2000/svg" xmlns:xlink="http://www.w3.org/1999/xlink">
<g id="graph0" class="graph" transform="scale(1 1) rotate(0) translate(25.2 833.36)">
<title>G</title>
<polygon fill="white" stroke="none" points="-25.2,25.2 -25.2,-833.36 979.96,-833.36 979.96,25.2 -25.2,25.2"/>
<text xml:space="preserve" text-anchor="middle" x="477.38" y="-784.36" font-family="Arial" font-size="22.00" fill="#19334c">03 / Localization and generic pathfinding</text>
<!-- mount -->
<g id="node1" class="node">
<title>mount</title>
<path fill="#f2eafb" stroke="#8057a2" stroke-width="1.3" d="M426.91,-773.76C426.91,-773.76 213.48,-773.76 213.48,-773.76 207.48,-773.76 201.48,-767.76 201.48,-761.76 201.48,-761.76 201.48,-734.88 201.48,-734.88 201.48,-728.88 207.48,-722.88 213.48,-722.88 213.48,-722.88 426.91,-722.88 426.91,-722.88 432.91,-722.88 438.91,-728.88 438.91,-734.88 438.91,-734.88 438.91,-761.76 438.91,-761.76 438.91,-767.76 432.91,-773.76 426.91,-773.76"/>
<text xml:space="preserve" text-anchor="middle" x="320.19" y="-752.52" font-family="Arial" font-size="14.00" fill="#172d43">Constants.VisionConstants</text>
<text xml:space="preserve" text-anchor="middle" x="320.19" y="-735.72" font-family="Arial" font-size="14.00" fill="#172d43">Camera name + mounting position</text>
</g>
<!-- cameras -->
<g id="node2" class="node">
<title>cameras</title>
<path fill="#e5f4f0" stroke="#2d7868" stroke-width="1.3" d="M291.79,-661.68C291.79,-661.68 98.59,-661.68 98.59,-661.68 92.59,-661.68 86.59,-655.68 86.59,-649.68 86.59,-649.68 86.59,-622.8 86.59,-622.8 86.59,-616.8 92.59,-610.8 98.59,-610.8 98.59,-610.8 291.79,-610.8 291.79,-610.8 297.79,-610.8 303.79,-616.8 303.79,-622.8 303.79,-622.8 303.79,-649.68 303.79,-649.68 303.79,-655.68 297.79,-661.68 291.79,-661.68"/>
<text xml:space="preserve" text-anchor="middle" x="195.19" y="-640.44" font-family="Arial" font-size="14.00" fill="#172d43">Single Limelight: limelight&#45;rear</text>
<text xml:space="preserve" text-anchor="middle" x="195.19" y="-623.64" font-family="Arial" font-size="14.00" fill="#172d43">Blue&#45;origin pose + capture time</text>
</g>
<!-- mount&#45;&gt;cameras -->
<g id="edge1" class="edge">
<title>mount&#45;&gt;cameras</title>
<path fill="none" stroke="#7a91a5" d="M291.83,-722.34C273.37,-706.09 249.18,-684.78 229.62,-667.56"/>
<polygon fill="#7a91a5" stroke="#7a91a5" points="231.45,-665.91 224.58,-663.12 228.22,-669.59 231.45,-665.91"/>
<text xml:space="preserve" text-anchor="middle" x="317.15" y="-688.98" font-family="Arial" font-size="11.00" fill="#435c71">REAL mounting pose</text>
</g>
<!-- sim -->
<g id="node3" class="node">
<title>sim</title>
<path fill="#e5f4f0" stroke="#2d7868" stroke-width="1.3" d="M549.6,-661.68C549.6,-661.68 342.79,-661.68 342.79,-661.68 336.79,-661.68 330.79,-655.68 330.79,-649.68 330.79,-649.68 330.79,-622.8 330.79,-622.8 330.79,-616.8 336.79,-610.8 342.79,-610.8 342.79,-610.8 549.6,-610.8 549.6,-610.8 555.6,-610.8 561.6,-616.8 561.6,-622.8 561.6,-622.8 561.6,-649.68 561.6,-649.68 561.6,-655.68 555.6,-661.68 549.6,-661.68"/>
<text xml:space="preserve" text-anchor="middle" x="446.19" y="-640.44" font-family="Arial" font-size="14.00" fill="#172d43">SimulatedDriveState Pose2d</text>
<text xml:space="preserve" text-anchor="middle" x="446.19" y="-623.64" font-family="Arial" font-size="14.00" fill="#172d43">→ One Photon camera simulation</text>
</g>
<!-- mount&#45;&gt;sim -->
<g id="edge2" class="edge">
<title>mount&#45;&gt;sim</title>
<path fill="none" stroke="#7a91a5" d="M348.79,-722.34C367.39,-706.09 391.78,-684.78 411.49,-667.56"/>
<polygon fill="#7a91a5" stroke="#7a91a5" points="412.92,-669.57 416.58,-663.12 409.69,-665.88 412.92,-669.57"/>
<text xml:space="preserve" text-anchor="middle" x="439.95" y="-688.98" font-family="Arial" font-size="11.00" fill="#435c71">SIM axis conversion</text>
</g>
<!-- visionio -->
<g id="node4" class="node">
<title>visionio</title>
<path fill="#fff1dd" stroke="#9c7032" stroke-width="1.3" d="M411.74,-549.6C411.74,-549.6 228.65,-549.6 228.65,-549.6 222.65,-549.6 216.65,-543.6 216.65,-537.6 216.65,-537.6 216.65,-510.72 216.65,-510.72 216.65,-504.72 222.65,-498.72 228.65,-498.72 228.65,-498.72 411.74,-498.72 411.74,-498.72 417.74,-498.72 423.74,-504.72 423.74,-510.72 423.74,-510.72 423.74,-537.6 423.74,-537.6 423.74,-543.6 417.74,-549.6 411.74,-549.6"/>
<text xml:space="preserve" text-anchor="middle" x="320.19" y="-528.36" font-family="Arial" font-size="14.00" fill="#172d43">VisionIO inputs</text>
<text xml:space="preserve" text-anchor="middle" x="320.19" y="-511.56" font-family="Arial" font-size="14.00" fill="#172d43">Observations + std deviations</text>
</g>
<!-- cameras&#45;&gt;visionio -->
<g id="edge3" class="edge">
<title>cameras&#45;&gt;visionio</title>
<path fill="none" stroke="#7a91a5" d="M223.56,-610.26C242.02,-594.01 266.21,-572.7 285.77,-555.48"/>
<polygon fill="#7a91a5" stroke="#7a91a5" points="287.17,-557.51 290.81,-551.04 283.93,-553.83 287.17,-557.51"/>
<text xml:space="preserve" text-anchor="middle" x="279.55" y="-576.9" font-family="Arial" font-size="11.00" fill="#435c71">REAL</text>
</g>
<!-- sim&#45;&gt;visionio -->
<g id="edge4" class="edge">
<title>sim&#45;&gt;visionio</title>
<path fill="none" stroke="#7a91a5" d="M417.6,-610.26C399,-594.01 374.61,-572.7 354.9,-555.48"/>
<polygon fill="#7a91a5" stroke="#7a91a5" points="356.7,-553.8 349.81,-551.04 353.47,-557.49 356.7,-553.8"/>
<text xml:space="preserve" text-anchor="middle" x="400.52" y="-576.9" font-family="Arial" font-size="11.00" fill="#435c71">SIM</text>
</g>
<!-- vision -->
<g id="node5" class="node">
<title>vision</title>
<path fill="#edf2ff" stroke="#5269ad" stroke-width="1.3" d="M416.99,-437.52C416.99,-437.52 223.4,-437.52 223.4,-437.52 217.4,-437.52 211.4,-431.52 211.4,-425.52 211.4,-425.52 211.4,-381.84 211.4,-381.84 211.4,-375.84 217.4,-369.84 223.4,-369.84 223.4,-369.84 416.99,-369.84 416.99,-369.84 422.99,-369.84 428.99,-375.84 428.99,-381.84 428.99,-381.84 428.99,-425.52 428.99,-425.52 428.99,-431.52 422.99,-437.52 416.99,-437.52"/>
<text xml:space="preserve" text-anchor="middle" x="320.19" y="-416.28" font-family="Arial" font-size="14.00" fill="#172d43">VisionSubsystem</text>
<text xml:space="preserve" text-anchor="middle" x="320.19" y="-399.48" font-family="Arial" font-size="14.00" fill="#172d43">Timestamp / quality checks</text>
<text xml:space="preserve" text-anchor="middle" x="320.19" y="-382.68" font-family="Arial" font-size="14.00" fill="#172d43">One accepted camera estimate</text>
</g>
<!-- visionio&#45;&gt;vision -->
<g id="edge5" class="edge">
<title>visionio&#45;&gt;vision</title>
<path fill="none" stroke="#7a91a5" d="M320.19,-498.32C320.19,-483.28 320.19,-463.7 320.19,-446.34"/>
<polygon fill="#7a91a5" stroke="#7a91a5" points="322.64,-446.54 320.19,-439.54 317.74,-446.54 322.64,-446.54"/>
<text xml:space="preserve" text-anchor="middle" x="356.88" y="-464.82" font-family="Arial" font-size="11.00" fill="#435c71">main&#45;loop read</text>
</g>
<!-- state -->
<g id="node6" class="node">
<title>state</title>
<path fill="#f2eafb" stroke="#8057a2" stroke-width="1.3" d="M359.81,-308.64C359.81,-308.64 210.58,-308.64 210.58,-308.64 204.58,-308.64 198.58,-302.64 198.58,-296.64 198.58,-296.64 198.58,-252.96 198.58,-252.96 198.58,-246.96 204.58,-240.96 210.58,-240.96 210.58,-240.96 359.81,-240.96 359.81,-240.96 365.81,-240.96 371.81,-246.96 371.81,-252.96 371.81,-252.96 371.81,-296.64 371.81,-296.64 371.81,-302.64 365.81,-308.64 359.81,-308.64"/>
<text xml:space="preserve" text-anchor="middle" x="285.19" y="-287.4" font-family="Arial" font-size="14.00" fill="#172d43">RobotState</text>
<text xml:space="preserve" text-anchor="middle" x="285.19" y="-270.6" font-family="Arial" font-size="14.00" fill="#172d43">Pose and motion history</text>
<text xml:space="preserve" text-anchor="middle" x="285.19" y="-253.8" font-family="Arial" font-size="14.00" fill="#172d43">Vision estimate callback</text>
</g>
<!-- vision&#45;&gt;state -->
<g id="edge7" class="edge">
<title>vision&#45;&gt;state</title>
<path fill="none" stroke="#7a91a5" d="M290.26,-369.29C279.17,-356.91 269.24,-345.84 269.24,-345.84 269.24,-345.84 269.24,-332.64 269.24,-332.64 269.24,-332.64 271.1,-326.02 273.55,-317.29"/>
<polygon fill="#7a91a5" stroke="#7a91a5" points="275.88,-318.05 275.41,-310.65 271.16,-316.73 275.88,-318.05"/>
<text xml:space="preserve" text-anchor="middle" x="326.72" y="-335.94" font-family="Arial" font-size="11.00" fill="#435c71">accepted measurement</text>
</g>
<!-- state&#45;&gt;vision -->
<g id="edge6" class="edge">
<title>state&#45;&gt;vision</title>
<path fill="none" stroke="#7a91a5" d="M346.88,-309.19C369.74,-321.57 390.19,-332.64 390.19,-332.64 390.19,-332.64 390.19,-345.84 390.19,-345.84 390.19,-345.84 380.12,-354.02 367.62,-364.17"/>
<polygon fill="#7a91a5" stroke="#7a91a5" points="366.38,-362.02 362.49,-368.33 369.47,-365.82 366.38,-362.02"/>
<text xml:space="preserve" text-anchor="middle" x="446.44" y="-335.94" font-family="Arial" font-size="11.00" fill="#435c71">historical pose / motion</text>
</g>
<!-- ctre -->
<g id="node7" class="node">
<title>ctre</title>
<path fill="#fff1dd" stroke="#9c7032" stroke-width="1.3" d="M190.39,-179.76C190.39,-179.76 12,-179.76 12,-179.76 6,-179.76 0,-173.76 0,-167.76 0,-167.76 0,-124.08 0,-124.08 0,-118.08 6,-112.08 12,-112.08 12,-112.08 190.39,-112.08 190.39,-112.08 196.39,-112.08 202.39,-118.08 202.39,-124.08 202.39,-124.08 202.39,-167.76 202.39,-167.76 202.39,-173.76 196.39,-179.76 190.39,-179.76"/>
<text xml:space="preserve" text-anchor="middle" x="101.19" y="-158.52" font-family="Arial" font-size="14.00" fill="#172d43">DriveIOHardware / CTRE</text>
<text xml:space="preserve" text-anchor="middle" x="101.19" y="-141.72" font-family="Arial" font-size="14.00" fill="#172d43">Vision time conversion</text>
<text xml:space="preserve" text-anchor="middle" x="101.19" y="-124.92" font-family="Arial" font-size="14.00" fill="#172d43">Odometry telemetry ~250 Hz</text>
</g>
<!-- state&#45;&gt;ctre -->
<g id="edge8" class="edge">
<title>state&#45;&gt;ctre</title>
<path fill="none" stroke="#7a91a5" d="M198.02,-246.71C150.91,-232.07 102.27,-216.96 102.27,-216.96 102.27,-216.96 102.07,-203.7 101.84,-188.72"/>
<polygon fill="#7a91a5" stroke="#7a91a5" points="104.29,-188.77 101.73,-181.81 99.39,-188.85 104.29,-188.77"/>
<text xml:space="preserve" text-anchor="middle" x="137.73" y="-207.06" font-family="Arial" font-size="11.00" fill="#435c71">vision callback</text>
</g>
<!-- controller -->
<g id="node12" class="node">
<title>controller</title>
<path fill="#edf2ff" stroke="#5269ad" stroke-width="1.3" d="M658.19,-171.36C658.19,-171.36 464.2,-171.36 464.2,-171.36 458.2,-171.36 452.2,-165.36 452.2,-159.36 452.2,-159.36 452.2,-132.48 452.2,-132.48 452.2,-126.48 458.2,-120.48 464.2,-120.48 464.2,-120.48 658.19,-120.48 658.19,-120.48 664.19,-120.48 670.19,-126.48 670.19,-132.48 670.19,-132.48 670.19,-159.36 670.19,-159.36 670.19,-165.36 664.19,-171.36 658.19,-171.36"/>
<text xml:space="preserve" text-anchor="middle" x="561.19" y="-150.12" font-family="Arial" font-size="14.00" fill="#172d43">DriveSubsystem.Controller</text>
<text xml:space="preserve" text-anchor="middle" x="561.19" y="-133.32" font-family="Arial" font-size="14.00" fill="#172d43">100 Hz feedback + feedforward</text>
</g>
<!-- state&#45;&gt;controller -->
<g id="edge15" class="edge">
<title>state&#45;&gt;controller</title>
<path fill="none" stroke="#7a91a5" d="M357.71,-240.46C401.76,-220.21 457.41,-194.63 499.37,-175.34"/>
<polygon fill="#7a91a5" stroke="#7a91a5" points="500.33,-177.6 505.67,-172.45 498.28,-173.14 500.33,-177.6"/>
<text xml:space="preserve" text-anchor="middle" x="467.25" y="-207.06" font-family="Arial" font-size="11.00" fill="#435c71">pose feedback</text>
</g>
<!-- align -->
<g id="node13" class="node">
<title>align</title>
<path fill="#edf2ff" stroke="#5269ad" stroke-width="1.3" d="M413.09,-171.36C413.09,-171.36 241.29,-171.36 241.29,-171.36 235.29,-171.36 229.29,-165.36 229.29,-159.36 229.29,-159.36 229.29,-132.48 229.29,-132.48 229.29,-126.48 235.29,-120.48 241.29,-120.48 241.29,-120.48 413.09,-120.48 413.09,-120.48 419.09,-120.48 425.09,-126.48 425.09,-132.48 425.09,-132.48 425.09,-159.36 425.09,-159.36 425.09,-165.36 419.09,-171.36 413.09,-171.36"/>
<text xml:space="preserve" text-anchor="middle" x="327.19" y="-150.12" font-family="Arial" font-size="14.00" fill="#172d43">AutoAlignToPoseCommand</text>
<text xml:space="preserve" text-anchor="middle" x="327.19" y="-133.32" font-family="Arial" font-size="14.00" fill="#172d43">Direct PID pose alignment</text>
</g>
<!-- state&#45;&gt;align -->
<g id="edge17" class="edge">
<title>state&#45;&gt;align</title>
<path fill="none" stroke="#7a91a5" d="M296.23,-240.46C302.45,-221.66 310.2,-198.26 316.39,-179.57"/>
<polygon fill="#7a91a5" stroke="#7a91a5" points="318.67,-180.47 318.54,-173.05 314.02,-178.93 318.67,-180.47"/>
<text xml:space="preserve" text-anchor="middle" x="343.23" y="-207.06" font-family="Arial" font-size="11.00" fill="#435c71">pose feedback</text>
</g>
<!-- ctre&#45;&gt;state -->
<g id="edge9" class="edge">
<title>ctre&#45;&gt;state</title>
<path fill="none" stroke="#7a91a5" d="M149.53,-180.25C174.26,-197.31 204.47,-218.13 230.1,-235.81"/>
<polygon fill="#7a91a5" stroke="#7a91a5" points="228.45,-237.65 235.6,-239.6 231.23,-233.61 228.45,-237.65"/>
<text xml:space="preserve" text-anchor="middle" x="242.73" y="-207.06" font-family="Arial" font-size="11.00" fill="#435c71">odometry / motion</text>
</g>
<!-- api -->
<g id="node8" class="node">
<title>api</title>
<path fill="#edf2ff" stroke="#5269ad" stroke-width="1.3" d="M724.56,-429.12C724.56,-429.12 513.83,-429.12 513.83,-429.12 507.83,-429.12 501.83,-423.12 501.83,-417.12 501.83,-417.12 501.83,-390.24 501.83,-390.24 501.83,-384.24 507.83,-378.24 513.83,-378.24 513.83,-378.24 724.56,-378.24 724.56,-378.24 730.56,-378.24 736.56,-384.24 736.56,-390.24 736.56,-390.24 736.56,-417.12 736.56,-417.12 736.56,-423.12 730.56,-429.12 724.56,-429.12"/>
<text xml:space="preserve" text-anchor="middle" x="619.19" y="-407.88" font-family="Arial" font-size="14.00" fill="#172d43">Local AutoBuilder.pathfindToPose</text>
<text xml:space="preserve" text-anchor="middle" x="619.19" y="-391.08" font-family="Arial" font-size="14.00" fill="#172d43">Pose2d + 6 constraint parameters</text>
</g>
<!-- command -->
<g id="node11" class="node">
<title>command</title>
<path fill="#edf2ff" stroke="#5269ad" stroke-width="1.3" d="M711.11,-300.24C711.11,-300.24 527.28,-300.24 527.28,-300.24 521.28,-300.24 515.28,-294.24 515.28,-288.24 515.28,-288.24 515.28,-261.36 515.28,-261.36 515.28,-255.36 521.28,-249.36 527.28,-249.36 527.28,-249.36 711.11,-249.36 711.11,-249.36 717.11,-249.36 723.11,-255.36 723.11,-261.36 723.11,-261.36 723.11,-288.24 723.11,-288.24 723.11,-294.24 717.11,-300.24 711.11,-300.24"/>
<text xml:space="preserve" text-anchor="middle" x="619.19" y="-279" font-family="Arial" font-size="14.00" fill="#172d43">Local PathfindingCommand</text>
<text xml:space="preserve" text-anchor="middle" x="619.19" y="-262.2" font-family="Arial" font-size="14.00" fill="#172d43">Drive requirement + trajectory</text>
</g>
<!-- api&#45;&gt;command -->
<g id="edge11" class="edge">
<title>api&#45;&gt;command</title>
<path fill="none" stroke="#7a91a5" d="M619.19,-377.61C619.19,-358.06 619.19,-330.72 619.19,-309.3"/>
<polygon fill="#7a91a5" stroke="#7a91a5" points="621.64,-309.33 619.19,-302.33 616.74,-309.33 621.64,-309.33"/>
<text xml:space="preserve" text-anchor="middle" x="662.91" y="-335.94" font-family="Arial" font-size="11.00" fill="#435c71">creates command</text>
</g>
<!-- grid -->
<g id="node9" class="node">
<title>grid</title>
<path fill="#e5f4f0" stroke="#2d7868" stroke-width="1.3" d="M942.76,-300.24C942.76,-300.24 761.63,-300.24 761.63,-300.24 755.63,-300.24 749.63,-294.24 749.63,-288.24 749.63,-288.24 749.63,-261.36 749.63,-261.36 749.63,-255.36 755.63,-249.36 761.63,-249.36 761.63,-249.36 942.76,-249.36 942.76,-249.36 948.76,-249.36 954.76,-255.36 954.76,-261.36 954.76,-261.36 954.76,-288.24 954.76,-288.24 954.76,-294.24 948.76,-300.24 942.76,-300.24"/>
<text xml:space="preserve" text-anchor="middle" x="852.19" y="-279" font-family="Arial" font-size="14.00" fill="#172d43">3 retained navgrid JSON files</text>
<text xml:space="preserve" text-anchor="middle" x="852.19" y="-262.2" font-family="Arial" font-size="14.00" fill="#172d43">teleop / auto / backoff sets</text>
</g>
<!-- planner -->
<g id="node10" class="node">
<title>planner</title>
<path fill="#edf2ff" stroke="#5269ad" stroke-width="1.3" d="M871.05,-171.36C871.05,-171.36 709.33,-171.36 709.33,-171.36 703.33,-171.36 697.33,-165.36 697.33,-159.36 697.33,-159.36 697.33,-132.48 697.33,-132.48 697.33,-126.48 703.33,-120.48 709.33,-120.48 709.33,-120.48 871.05,-120.48 871.05,-120.48 877.05,-120.48 883.05,-126.48 883.05,-132.48 883.05,-132.48 883.05,-159.36 883.05,-159.36 883.05,-165.36 877.05,-171.36 871.05,-171.36"/>
<text xml:space="preserve" text-anchor="middle" x="790.19" y="-150.12" font-family="Arial" font-size="14.00" fill="#172d43">LocalADStar</text>
<text xml:space="preserve" text-anchor="middle" x="790.19" y="-133.32" font-family="Arial" font-size="14.00" fill="#172d43">Background path planning</text>
</g>
<!-- grid&#45;&gt;planner -->
<g id="edge10" class="edge">
<title>grid&#45;&gt;planner</title>
<path fill="none" stroke="#7a91a5" d="M841.18,-248.91C832.27,-228.78 821.19,-203.76 821.19,-203.76 821.19,-203.76 814.69,-191.83 807.64,-178.9"/>
<polygon fill="#7a91a5" stroke="#7a91a5" points="809.93,-177.99 804.43,-173.01 805.63,-180.33 809.93,-177.99"/>
<text xml:space="preserve" text-anchor="middle" x="877.75" y="-207.06" font-family="Arial" font-size="11.00" fill="#435c71">selected obstacle set</text>
</g>
<!-- planner&#45;&gt;command -->
<g id="edge13" class="edge">
<title>planner&#45;&gt;command</title>
<path fill="none" stroke="#7a91a5" d="M773.49,-171.81C759.98,-191.94 743.19,-216.96 743.19,-216.96 743.19,-216.96 712.09,-231.22 681.03,-245.45"/>
<polygon fill="#7a91a5" stroke="#7a91a5" points="680.3,-243.09 674.96,-248.24 682.34,-247.55 680.3,-243.09"/>
<text xml:space="preserve" text-anchor="middle" x="773.4" y="-207.06" font-family="Arial" font-size="11.00" fill="#435c71">new path</text>
</g>
<!-- command&#45;&gt;planner -->
<g id="edge12" class="edge">
<title>command&#45;&gt;planner</title>
<path fill="none" stroke="#7a91a5" d="M633.64,-248.91C645.33,-228.78 659.85,-203.76 659.85,-203.76 659.85,-203.76 692.83,-189.38 725.61,-175.09"/>
<polygon fill="#7a91a5" stroke="#7a91a5" points="726.2,-177.5 731.64,-172.46 724.24,-173.01 726.2,-177.5"/>
<text xml:space="preserve" text-anchor="middle" x="700.52" y="-207.06" font-family="Arial" font-size="11.00" fill="#435c71">planning request</text>
</g>
<!-- command&#45;&gt;controller -->
<g id="edge14" class="edge">
<title>command&#45;&gt;controller</title>
<path fill="none" stroke="#7a91a5" d="M602.1,-249.03C591.53,-233.72 579.96,-216.96 579.96,-216.96 579.96,-216.96 574.92,-198.15 570.06,-180.02"/>
<polygon fill="#7a91a5" stroke="#7a91a5" points="572.43,-179.4 568.25,-173.27 567.7,-180.67 572.43,-179.4"/>
<text xml:space="preserve" text-anchor="middle" x="602.58" y="-207.06" font-family="Arial" font-size="11.00" fill="#435c71">trajectory</text>
</g>
<!-- output -->
<g id="node14" class="node">
<title>output</title>
<path fill="#eaf0f4" stroke="#627c91" stroke-width="1.3" d="M537.26,-50.88C537.26,-50.88 349.13,-50.88 349.13,-50.88 343.13,-50.88 337.13,-44.88 337.13,-38.88 337.13,-38.88 337.13,-12 337.13,-12 337.13,-6 343.13,0 349.13,0 349.13,0 537.26,0 537.26,0 543.26,0 549.26,-6 549.26,-12 549.26,-12 549.26,-38.88 549.26,-38.88 549.26,-44.88 543.26,-50.88 537.26,-50.88"/>
<text xml:space="preserve" text-anchor="middle" x="443.19" y="-29.64" font-family="Arial" font-size="14.00" fill="#172d43">DriveSubsystem locked output</text>
<text xml:space="preserve" text-anchor="middle" x="443.19" y="-12.84" font-family="Arial" font-size="14.00" fill="#172d43">→ DriveIO → Swerve modules</text>
</g>
<!-- controller&#45;&gt;output -->
<g id="edge16" class="edge">
<title>controller&#45;&gt;output</title>
<path fill="none" stroke="#7a91a5" d="M545.2,-120.03C532.27,-99.9 516.19,-74.88 516.19,-74.88 516.19,-74.88 503.11,-66.19 488.01,-56.18"/>
<polygon fill="#7a91a5" stroke="#7a91a5" points="489.43,-54.18 482.24,-52.35 486.72,-58.26 489.43,-54.18"/>
<text xml:space="preserve" text-anchor="middle" x="556.46" y="-78.18" font-family="Arial" font-size="11.00" fill="#435c71">locked output</text>
</g>
<!-- align&#45;&gt;output -->
<g id="edge18" class="edge">
<title>align&#45;&gt;output</title>
<path fill="none" stroke="#7a91a5" d="M341.28,-120.03C352.68,-99.9 366.84,-74.88 366.84,-74.88 366.84,-74.88 380.78,-66.04 396.75,-55.91"/>
<polygon fill="#7a91a5" stroke="#7a91a5" points="397.8,-58.14 402.4,-52.32 395.18,-54 397.8,-58.14"/>
<text xml:space="preserve" text-anchor="middle" x="440.52" y="-78.18" font-family="Arial" font-size="11.00" fill="#435c71">requires Drive; no path search</text>
</g>
</g>
</svg>
