<?xml version="1.0" encoding="UTF-8" standalone="no"?>
<!DOCTYPE svg PUBLIC "-//W3C//DTD SVG 1.1//EN"
 "http://www.w3.org/Graphics/SVG/1.1/DTD/svg11.dtd">
<!-- Generated by graphviz version 14.1.3 (20260303.0454)
 -->
<!-- Title: G Pages: 1 -->
<svg width="960pt" height="954pt"
 viewBox="0.00 0.00 960.00 954.00" xmlns="http://www.w3.org/2000/svg" xmlns:xlink="http://www.w3.org/1999/xlink">
<g id="graph0" class="graph" transform="scale(1 1) rotate(0) translate(25.2 928.64)">
<title>G</title>
<polygon fill="white" stroke="none" points="-25.2,25.2 -25.2,-928.64 935.02,-928.64 935.02,25.2 -25.2,25.2"/>
<text xml:space="preserve" text-anchor="middle" x="454.91" y="-879.64" font-family="Arial" font-size="22.00" fill="#19334c">05 / MT2 position + MT1 heading</text>
<!-- state -->
<g id="node1" class="node">
<title>state</title>
<path fill="#f2eafb" stroke="#8057a2" stroke-width="1.3" d="M840.01,-869.04C840.01,-869.04 608.29,-869.04 608.29,-869.04 602.29,-869.04 596.29,-863.04 596.29,-857.04 596.29,-857.04 596.29,-830.16 596.29,-830.16 596.29,-824.16 602.29,-818.16 608.29,-818.16 608.29,-818.16 840.01,-818.16 840.01,-818.16 846.01,-818.16 852.01,-824.16 852.01,-830.16 852.01,-830.16 852.01,-857.04 852.01,-857.04 852.01,-863.04 846.01,-869.04 840.01,-869.04"/>
<text xml:space="preserve" text-anchor="middle" x="724.15" y="-847.8" font-family="Arial" font-size="14.00" fill="#172d43">RobotState / blue&#45;origin heading</text>
<text xml:space="preserve" text-anchor="middle" x="724.15" y="-831" font-family="Arial" font-size="14.00" fill="#172d43">Pigeon angular rate (SIM: wheel rate)</text>
</g>
<!-- orientation -->
<g id="node2" class="node">
<title>orientation</title>
<path fill="#edf2ff" stroke="#5269ad" stroke-width="1.3" d="M752.53,-756.96C752.53,-756.96 471.77,-756.96 471.77,-756.96 465.77,-756.96 459.77,-750.96 459.77,-744.96 459.77,-744.96 459.77,-701.28 459.77,-701.28 459.77,-695.28 465.77,-689.28 471.77,-689.28 471.77,-689.28 752.53,-689.28 752.53,-689.28 758.53,-689.28 764.53,-695.28 764.53,-701.28 764.53,-701.28 764.53,-744.96 764.53,-744.96 764.53,-750.96 758.53,-756.96 752.53,-756.96"/>
<text xml:space="preserve" text-anchor="middle" x="612.15" y="-735.72" font-family="Arial" font-size="14.00" fill="#172d43">setRobotOrientation BEFORE read</text>
<text xml:space="preserve" text-anchor="middle" x="612.15" y="-718.92" font-family="Arial" font-size="14.00" fill="#172d43">Yaw: degrees / yaw rate: degrees per second</text>
<text xml:space="preserve" text-anchor="middle" x="612.15" y="-702.12" font-family="Arial" font-size="14.00" fill="#172d43">External IMU mode 0</text>
</g>
<!-- state&#45;&gt;orientation -->
<g id="edge1" class="edge">
<title>state&#45;&gt;orientation</title>
<path fill="none" stroke="#7a91a5" d="M700.67,-817.76C685.8,-802.03 666.26,-781.35 649.31,-763.43"/>
<polygon fill="#7a91a5" stroke="#7a91a5" points="651.3,-761.97 644.72,-758.57 647.74,-765.34 651.3,-761.97"/>
<text xml:space="preserve" text-anchor="middle" x="712.42" y="-784.26" font-family="Arial" font-size="11.00" fill="#435c71">every periodic</text>
</g>
<!-- camera -->
<g id="node3" class="node">
<title>camera</title>
<path fill="#e5f4f0" stroke="#2d7868" stroke-width="1.3" d="M558.98,-628.08C558.98,-628.08 397.33,-628.08 397.33,-628.08 391.33,-628.08 385.33,-622.08 385.33,-616.08 385.33,-616.08 385.33,-589.2 385.33,-589.2 385.33,-583.2 391.33,-577.2 397.33,-577.2 397.33,-577.2 558.98,-577.2 558.98,-577.2 564.98,-577.2 570.98,-583.2 570.98,-589.2 570.98,-589.2 570.98,-616.08 570.98,-616.08 570.98,-622.08 564.98,-628.08 558.98,-628.08"/>
<text xml:space="preserve" text-anchor="middle" x="478.15" y="-606.84" font-family="Arial" font-size="14.00" fill="#172d43">limelight&#45;rear / front&#45;facing</text>
<text xml:space="preserve" text-anchor="middle" x="478.15" y="-590.04" font-family="Arial" font-size="14.00" fill="#172d43">Center + 0.54m / pitch 0</text>
</g>
<!-- orientation&#45;&gt;camera -->
<g id="edge2" class="edge">
<title>orientation&#45;&gt;camera</title>
<path fill="none" stroke="#7a91a5" d="M574.47,-688.8C555,-671.58 531.41,-650.73 512.45,-633.96"/>
<polygon fill="#7a91a5" stroke="#7a91a5" points="514.21,-632.25 507.34,-629.45 510.96,-635.92 514.21,-632.25"/>
<text xml:space="preserve" text-anchor="middle" x="596.83" y="-655.38" font-family="Arial" font-size="11.00" fill="#435c71">robot_orientation_set</text>
</g>
<!-- mt1 -->
<g id="node4" class="node">
<title>mt1</title>
<path fill="#fff1dd" stroke="#9c7032" stroke-width="1.3" d="M194.3,-507.6C194.3,-507.6 12,-507.6 12,-507.6 6,-507.6 0,-501.6 0,-495.6 0,-495.6 0,-468.72 0,-468.72 0,-462.72 6,-456.72 12,-456.72 12,-456.72 194.3,-456.72 194.3,-456.72 200.3,-456.72 206.3,-462.72 206.3,-468.72 206.3,-468.72 206.3,-495.6 206.3,-495.6 206.3,-501.6 200.3,-507.6 194.3,-507.6"/>
<text xml:space="preserve" text-anchor="middle" x="103.15" y="-486.36" font-family="Arial" font-size="14.00" fill="#172d43">MT1: botpose_wpiblue</text>
<text xml:space="preserve" text-anchor="middle" x="103.15" y="-469.56" font-family="Arial" font-size="14.00" fill="#172d43">Heading + capture timestamp</text>
</g>
<!-- camera&#45;&gt;mt1 -->
<g id="edge3" class="edge">
<title>camera&#45;&gt;mt1</title>
<path fill="none" stroke="#7a91a5" d="M399.08,-576.66C337.98,-557.35 253.48,-530.65 190.41,-510.73"/>
<polygon fill="#7a91a5" stroke="#7a91a5" points="191.29,-508.44 183.88,-508.67 189.82,-513.11 191.29,-508.44"/>
<text xml:space="preserve" text-anchor="middle" x="352.98" y="-543.3" font-family="Arial" font-size="11.00" fill="#435c71">Helper read</text>
</g>
<!-- mt2 -->
<g id="node5" class="node">
<title>mt2</title>
<path fill="#fff1dd" stroke="#9c7032" stroke-width="1.3" d="M485.1,-507.6C485.1,-507.6 245.2,-507.6 245.2,-507.6 239.2,-507.6 233.2,-501.6 233.2,-495.6 233.2,-495.6 233.2,-468.72 233.2,-468.72 233.2,-462.72 239.2,-456.72 245.2,-456.72 245.2,-456.72 485.1,-456.72 485.1,-456.72 491.1,-456.72 497.1,-462.72 497.1,-468.72 497.1,-468.72 497.1,-495.6 497.1,-495.6 497.1,-501.6 491.1,-507.6 485.1,-507.6"/>
<text xml:space="preserve" text-anchor="middle" x="365.15" y="-486.36" font-family="Arial" font-size="14.00" fill="#172d43">MT2: botpose_orb_wpiblue</text>
<text xml:space="preserve" text-anchor="middle" x="365.15" y="-469.56" font-family="Arial" font-size="14.00" fill="#172d43">XY + timestamp + tag count + distance</text>
</g>
<!-- camera&#45;&gt;mt2 -->
<g id="edge4" class="edge">
<title>camera&#45;&gt;mt2</title>
<path fill="none" stroke="#7a91a5" d="M454.46,-576.8C437.06,-558.56 413.3,-533.65 394.67,-514.11"/>
<polygon fill="#7a91a5" stroke="#7a91a5" points="396.46,-512.43 389.85,-509.06 392.91,-515.82 396.46,-512.43"/>
<text xml:space="preserve" text-anchor="middle" x="460.51" y="-543.3" font-family="Arial" font-size="11.00" fill="#435c71">Helper read</text>
</g>
<!-- relative -->
<g id="node10" class="node">
<title>relative</title>
<path fill="#edf2ff" stroke="#5269ad" stroke-width="1.3" d="M768.43,-516C768.43,-516 535.88,-516 535.88,-516 529.88,-516 523.88,-510 523.88,-504 523.88,-504 523.88,-460.32 523.88,-460.32 523.88,-454.32 529.88,-448.32 535.88,-448.32 535.88,-448.32 768.43,-448.32 768.43,-448.32 774.43,-448.32 780.43,-454.32 780.43,-460.32 780.43,-460.32 780.43,-504 780.43,-504 780.43,-510 774.43,-516 768.43,-516"/>
<text xml:space="preserve" text-anchor="middle" x="652.15" y="-494.76" font-family="Arial" font-size="14.00" fill="#172d43">tv + tid + targetpose_cameraspace</text>
<text xml:space="preserve" text-anchor="middle" x="652.15" y="-477.96" font-family="Arial" font-size="14.00" fill="#172d43">Square / Triangle track ID 21</text>
<text xml:space="preserve" text-anchor="middle" x="652.15" y="-461.16" font-family="Arial" font-size="14.00" fill="#172d43">Independent of field&#45;pose acceptance</text>
</g>
<!-- camera&#45;&gt;relative -->
<g id="edge12" class="edge">
<title>camera&#45;&gt;relative</title>
<path fill="none" stroke="#7a91a5" d="M514.63,-576.8C538.33,-560.66 569.69,-539.31 596.47,-521.07"/>
<polygon fill="#7a91a5" stroke="#7a91a5" points="597.52,-523.32 601.93,-517.36 594.76,-519.27 597.52,-523.32"/>
<text xml:space="preserve" text-anchor="middle" x="616.52" y="-543.3" font-family="Arial" font-size="11.00" fill="#435c71">separate observation</text>
</g>
<!-- filter -->
<g id="node6" class="node">
<title>filter</title>
<path fill="#fff7d8" stroke="#9c852d" stroke-width="1.3" d="M500.07,-387.12C500.07,-387.12 230.23,-387.12 230.23,-387.12 224.23,-387.12 218.23,-381.12 218.23,-375.12 218.23,-375.12 218.23,-348.24 218.23,-348.24 218.23,-342.24 224.23,-336.24 230.23,-336.24 230.23,-336.24 500.07,-336.24 500.07,-336.24 506.07,-336.24 512.07,-342.24 512.07,-348.24 512.07,-348.24 512.07,-375.12 512.07,-375.12 512.07,-381.12 506.07,-387.12 500.07,-387.12"/>
<text xml:space="preserve" text-anchor="middle" x="365.15" y="-365.88" font-family="Arial" font-size="14.00" fill="#172d43">Both valid / fresh / within 50ms</text>
<text xml:space="preserve" text-anchor="middle" x="365.15" y="-349.08" font-family="Arial" font-size="14.00" fill="#172d43">No reused frames / field / distance / rotation</text>
</g>
<!-- mt1&#45;&gt;filter -->
<g id="edge5" class="edge">
<title>mt1&#45;&gt;filter</title>
<path fill="none" stroke="#7a91a5" d="M158.4,-456.18C200.46,-437.16 258.4,-410.95 302.25,-391.13"/>
<polygon fill="#7a91a5" stroke="#7a91a5" points="303.24,-393.37 308.61,-388.25 301.22,-388.9 303.24,-393.37"/>
<text xml:space="preserve" text-anchor="middle" x="277.8" y="-414.42" font-family="Arial" font-size="11.00" fill="#435c71">required</text>
</g>
<!-- mt2&#45;&gt;filter -->
<g id="edge6" class="edge">
<title>mt2&#45;&gt;filter</title>
<path fill="none" stroke="#7a91a5" d="M365.15,-456.32C365.15,-438.79 365.15,-415.1 365.15,-395.93"/>
<polygon fill="#7a91a5" stroke="#7a91a5" points="367.6,-396 365.15,-389 362.7,-396 367.6,-396"/>
<text xml:space="preserve" text-anchor="middle" x="385.33" y="-414.42" font-family="Arial" font-size="11.00" fill="#435c71">required</text>
</g>
<!-- combine -->
<g id="node7" class="node">
<title>combine</title>
<path fill="#edf2ff" stroke="#5269ad" stroke-width="1.3" d="M497.15,-275.04C497.15,-275.04 233.15,-275.04 233.15,-275.04 227.15,-275.04 221.15,-269.04 221.15,-263.04 221.15,-263.04 221.15,-236.16 221.15,-236.16 221.15,-230.16 227.15,-224.16 233.15,-224.16 233.15,-224.16 497.15,-224.16 497.15,-224.16 503.15,-224.16 509.15,-230.16 509.15,-236.16 509.15,-236.16 509.15,-263.04 509.15,-263.04 509.15,-269.04 503.15,-275.04 497.15,-275.04"/>
<text xml:space="preserve" text-anchor="middle" x="365.15" y="-253.8" font-family="Arial" font-size="14.00" fill="#172d43">One Pose2d: MT2 XY + MT1 heading</text>
<text xml:space="preserve" text-anchor="middle" x="365.15" y="-237" font-family="Arial" font-size="14.00" fill="#172d43">Use MT2 timestamp / heading std = 10 rad</text>
</g>
<!-- filter&#45;&gt;combine -->
<g id="edge7" class="edge">
<title>filter&#45;&gt;combine</title>
<path fill="none" stroke="#7a91a5" d="M365.15,-335.7C365.15,-320.36 365.15,-300.52 365.15,-283.86"/>
<polygon fill="#7a91a5" stroke="#7a91a5" points="367.6,-283.99 365.15,-276.99 362.7,-283.99 367.6,-283.99"/>
<text xml:space="preserve" text-anchor="middle" x="387.47" y="-302.34" font-family="Arial" font-size="11.00" fill="#435c71">accepted</text>
</g>
<!-- reject -->
<g id="node11" class="node">
<title>reject</title>
<path fill="#fce8e8" stroke="#a34b50" stroke-width="1.3" d="M722.62,-275.04C722.62,-275.04 547.69,-275.04 547.69,-275.04 541.69,-275.04 535.69,-269.04 535.69,-263.04 535.69,-263.04 535.69,-236.16 535.69,-236.16 535.69,-230.16 541.69,-224.16 547.69,-224.16 547.69,-224.16 722.62,-224.16 722.62,-224.16 728.62,-224.16 734.62,-230.16 734.62,-236.16 734.62,-236.16 734.62,-263.04 734.62,-263.04 734.62,-269.04 728.62,-275.04 722.62,-275.04"/>
<text xml:space="preserve" text-anchor="middle" x="635.15" y="-253.8" font-family="Arial" font-size="14.00" fill="#172d43">No field&#45;pose update</text>
<text xml:space="preserve" text-anchor="middle" x="635.15" y="-237" font-family="Arial" font-size="14.00" fill="#172d43">Log Vision/RejectionReason</text>
</g>
<!-- filter&#45;&gt;reject -->
<g id="edge8" class="edge">
<title>filter&#45;&gt;reject</title>
<path fill="none" stroke="#7a91a5" d="M426.42,-335.7C467.96,-318.77 522.93,-296.35 566.03,-278.78"/>
<polygon fill="#7a91a5" stroke="#7a91a5" points="566.7,-281.15 572.26,-276.24 564.85,-276.62 566.7,-281.15"/>
<text xml:space="preserve" text-anchor="middle" x="535.88" y="-302.34" font-family="Arial" font-size="11.00" fill="#435c71">rejected</text>
</g>
<!-- callback -->
<g id="node8" class="node">
<title>callback</title>
<path fill="#f2eafb" stroke="#8057a2" stroke-width="1.3" d="M696.05,-162.96C696.05,-162.96 470.26,-162.96 470.26,-162.96 464.26,-162.96 458.26,-156.96 458.26,-150.96 458.26,-150.96 458.26,-124.08 458.26,-124.08 458.26,-118.08 464.26,-112.08 470.26,-112.08 470.26,-112.08 696.05,-112.08 696.05,-112.08 702.05,-112.08 708.05,-118.08 708.05,-124.08 708.05,-124.08 708.05,-150.96 708.05,-150.96 708.05,-156.96 702.05,-162.96 696.05,-162.96"/>
<text xml:space="preserve" text-anchor="middle" x="583.15" y="-141.72" font-family="Arial" font-size="14.00" fill="#172d43">RobotState vision callback</text>
<text xml:space="preserve" text-anchor="middle" x="583.15" y="-124.92" font-family="Arial" font-size="14.00" fill="#172d43">DriveIO: FPGA &#45;&gt; CTRE time ONCE</text>
</g>
<!-- combine&#45;&gt;callback -->
<g id="edge9" class="edge">
<title>combine&#45;&gt;callback</title>
<path fill="none" stroke="#7a91a5" d="M414.62,-223.62C447.81,-206.86 491.62,-184.74 526.26,-167.25"/>
<polygon fill="#7a91a5" stroke="#7a91a5" points="527.01,-169.61 532.15,-164.27 524.8,-165.24 527.01,-169.61"/>
<text xml:space="preserve" text-anchor="middle" x="531.53" y="-190.26" font-family="Arial" font-size="11.00" fill="#435c71">one measurement</text>
</g>
<!-- drive -->
<g id="node9" class="node">
<title>drive</title>
<path fill="#eaf0f4" stroke="#627c91" stroke-width="1.3" d="M835.72,-50.88C835.72,-50.88 640.58,-50.88 640.58,-50.88 634.58,-50.88 628.58,-44.88 628.58,-38.88 628.58,-38.88 628.58,-12 628.58,-12 628.58,-6 634.58,0 640.58,0 640.58,0 835.72,0 835.72,0 841.72,0 847.72,-6 847.72,-12 847.72,-12 847.72,-38.88 847.72,-38.88 847.72,-44.88 841.72,-50.88 835.72,-50.88"/>
<text xml:space="preserve" text-anchor="middle" x="738.15" y="-29.64" font-family="Arial" font-size="14.00" fill="#172d43">CTRE pose estimator</text>
<text xml:space="preserve" text-anchor="middle" x="738.15" y="-12.84" font-family="Arial" font-size="14.00" fill="#172d43">Vision + gyro + wheel odometry</text>
</g>
<!-- callback&#45;&gt;drive -->
<g id="edge10" class="edge">
<title>callback&#45;&gt;drive</title>
<path fill="none" stroke="#7a91a5" d="M618.32,-111.54C641.43,-95.13 671.77,-73.58 696.15,-56.27"/>
<polygon fill="#7a91a5" stroke="#7a91a5" points="697.33,-58.44 701.62,-52.39 694.49,-54.44 697.33,-58.44"/>
<text xml:space="preserve" text-anchor="middle" x="720.38" y="-78.18" font-family="Arial" font-size="11.00" fill="#435c71">latency&#45;aware fusion</text>
</g>
<!-- drive&#45;&gt;state -->
<g id="edge11" class="edge">
<title>drive&#45;&gt;state</title>
<path fill="none" stroke="#7a91a5" d="M758.34,-51.51C767.85,-63.33 777.15,-74.88 777.15,-74.88 777.15,-74.88 821.15,-136.52 821.15,-136.52 821.15,-724.12 821.15,-724.12 821.15,-724.12 821.15,-724.12 778.42,-776.32 749.68,-811.42"/>
<polygon fill="#7a91a5" stroke="#7a91a5" points="747.98,-809.62 745.45,-816.59 751.78,-812.73 747.98,-809.62"/>
<text xml:space="preserve" text-anchor="middle" x="865.49" y="-414.42" font-family="Arial" font-size="11.00" fill="#435c71">updated odometry</text>
</g>
</g>
</svg>
